<mxfile host="Electron" modified="2023-10-18T09:05:57.134Z" agent="Mozilla/5.0 (Windows NT 10.0; Win64; x64) AppleWebKit/537.36 (KHTML, like Gecko) draw.io/21.1.2 Chrome/106.0.5249.199 Electron/21.4.3 Safari/537.36" etag="GyPW0Y9wcBiX6A2dLpxp" version="21.1.2" type="device">
  <diagram name="ページ1" id="Z36bnRHXo4-Sn-wLioE_">
    <mxGraphModel dx="945" dy="552" grid="1" gridSize="10" guides="1" tooltips="1" connect="1" arrows="1" fold="1" page="1" pageScale="1" pageWidth="827" pageHeight="1169" math="1" shadow="0">
      <root>
        <mxCell id="0" />
        <mxCell id="1" parent="0" />
        <mxCell id="LxearwVgbOkMHxchKVPO-36" style="edgeStyle=orthogonalEdgeStyle;shape=connector;rounded=0;orthogonalLoop=1;jettySize=auto;html=1;exitX=1;exitY=0.5;exitDx=0;exitDy=0;exitPerimeter=0;labelBackgroundColor=default;strokeColor=default;fontFamily=Helvetica;fontSize=11;fontColor=default;endArrow=none;endFill=0;" edge="1" parent="1" source="qpCPb7txdEObnfIfevjp-3">
          <mxGeometry relative="1" as="geometry">
            <mxPoint x="240.04672897196264" y="310.00000000000006" as="targetPoint" />
          </mxGeometry>
        </mxCell>
        <mxCell id="LxearwVgbOkMHxchKVPO-43" style="edgeStyle=orthogonalEdgeStyle;shape=connector;rounded=0;orthogonalLoop=1;jettySize=auto;html=1;exitX=0;exitY=0.5;exitDx=0;exitDy=0;exitPerimeter=0;entryX=0.456;entryY=0.666;entryDx=0;entryDy=0;entryPerimeter=0;labelBackgroundColor=default;strokeColor=default;fontFamily=Helvetica;fontSize=11;fontColor=default;endArrow=none;endFill=0;" edge="1" parent="1" source="qpCPb7txdEObnfIfevjp-3" target="LxearwVgbOkMHxchKVPO-41">
          <mxGeometry relative="1" as="geometry" />
        </mxCell>
        <mxCell id="qpCPb7txdEObnfIfevjp-3" value="" style="pointerEvents=1;verticalLabelPosition=bottom;shadow=0;dashed=0;align=center;html=1;verticalAlign=top;shape=mxgraph.electrical.signal_sources.source;aspect=fixed;points=[[0.5,0,0],[1,0.5,0],[0.5,1,0],[0,0.5,0]];elSignalType=dc1;rotation=90;" parent="1" vertex="1">
          <mxGeometry x="210" y="190" width="60" height="60" as="geometry" />
        </mxCell>
        <mxCell id="qpCPb7txdEObnfIfevjp-9" value="&lt;font style=&quot;font-size: 24px;&quot;&gt;`I_{bias}`&lt;/font&gt;" style="text;html=1;align=center;verticalAlign=middle;resizable=0;points=[];autosize=1;strokeColor=none;fillColor=none;fontSize=11;fontFamily=Helvetica;fontColor=default;" parent="1" vertex="1">
          <mxGeometry x="250" y="200" width="120" height="40" as="geometry" />
        </mxCell>
        <mxCell id="qpCPb7txdEObnfIfevjp-10" value="&lt;font style=&quot;font-size: 24px;&quot;&gt;`V_{dd}`&lt;/font&gt;" style="text;html=1;align=center;verticalAlign=middle;resizable=0;points=[];autosize=1;strokeColor=none;fillColor=none;fontSize=11;fontFamily=Helvetica;fontColor=default;" parent="1" vertex="1">
          <mxGeometry x="283" y="120" width="110" height="40" as="geometry" />
        </mxCell>
        <mxCell id="LxearwVgbOkMHxchKVPO-8" style="edgeStyle=orthogonalEdgeStyle;rounded=0;orthogonalLoop=1;jettySize=auto;html=1;exitX=1;exitY=1;exitDx=0;exitDy=0;exitPerimeter=0;entryX=0;entryY=0.5;entryDx=0;entryDy=0;entryPerimeter=0;endArrow=none;endFill=0;" edge="1" parent="1" source="LxearwVgbOkMHxchKVPO-2" target="LxearwVgbOkMHxchKVPO-6">
          <mxGeometry relative="1" as="geometry" />
        </mxCell>
        <mxCell id="LxearwVgbOkMHxchKVPO-33" style="edgeStyle=orthogonalEdgeStyle;shape=connector;rounded=0;orthogonalLoop=1;jettySize=auto;html=1;exitX=1;exitY=0;exitDx=0;exitDy=0;exitPerimeter=0;labelBackgroundColor=default;strokeColor=default;fontFamily=Helvetica;fontSize=11;fontColor=default;endArrow=none;endFill=0;" edge="1" parent="1" source="LxearwVgbOkMHxchKVPO-2" target="LxearwVgbOkMHxchKVPO-31">
          <mxGeometry relative="1" as="geometry">
            <Array as="points">
              <mxPoint x="200" y="310" />
            </Array>
          </mxGeometry>
        </mxCell>
        <mxCell id="LxearwVgbOkMHxchKVPO-75" style="edgeStyle=orthogonalEdgeStyle;shape=connector;rounded=0;orthogonalLoop=1;jettySize=auto;html=1;exitX=0;exitY=0.5;exitDx=0;exitDy=0;exitPerimeter=0;entryX=1;entryY=0.5;entryDx=0;entryDy=0;labelBackgroundColor=default;strokeColor=default;fontFamily=Helvetica;fontSize=11;fontColor=default;endArrow=none;endFill=0;" edge="1" parent="1" source="LxearwVgbOkMHxchKVPO-2" target="LxearwVgbOkMHxchKVPO-72">
          <mxGeometry relative="1" as="geometry" />
        </mxCell>
        <mxCell id="LxearwVgbOkMHxchKVPO-2" value="" style="verticalLabelPosition=bottom;shadow=0;dashed=0;align=center;html=1;verticalAlign=top;shape=mxgraph.electrical.transistors.pmos;pointerEvents=1;" vertex="1" parent="1">
          <mxGeometry x="140" y="310" width="60" height="100" as="geometry" />
        </mxCell>
        <mxCell id="LxearwVgbOkMHxchKVPO-15" style="edgeStyle=orthogonalEdgeStyle;shape=connector;rounded=0;orthogonalLoop=1;jettySize=auto;html=1;exitX=1;exitY=1;exitDx=0;exitDy=0;exitPerimeter=0;labelBackgroundColor=default;strokeColor=default;fontFamily=Helvetica;fontSize=11;fontColor=default;endArrow=none;endFill=0;" edge="1" parent="1" source="LxearwVgbOkMHxchKVPO-3" target="LxearwVgbOkMHxchKVPO-13">
          <mxGeometry relative="1" as="geometry">
            <Array as="points">
              <mxPoint x="280" y="420" />
            </Array>
          </mxGeometry>
        </mxCell>
        <mxCell id="LxearwVgbOkMHxchKVPO-35" style="edgeStyle=orthogonalEdgeStyle;shape=connector;rounded=0;orthogonalLoop=1;jettySize=auto;html=1;exitX=1;exitY=0;exitDx=0;exitDy=0;exitPerimeter=0;labelBackgroundColor=default;strokeColor=default;fontFamily=Helvetica;fontSize=11;fontColor=default;endArrow=none;endFill=0;" edge="1" parent="1" source="LxearwVgbOkMHxchKVPO-3" target="LxearwVgbOkMHxchKVPO-31">
          <mxGeometry relative="1" as="geometry">
            <Array as="points">
              <mxPoint x="280" y="310" />
            </Array>
          </mxGeometry>
        </mxCell>
        <mxCell id="LxearwVgbOkMHxchKVPO-3" value="" style="verticalLabelPosition=bottom;shadow=0;dashed=0;align=center;html=1;verticalAlign=top;shape=mxgraph.electrical.transistors.pmos;pointerEvents=1;flipH=1;" vertex="1" parent="1">
          <mxGeometry x="280" y="310" width="60" height="100" as="geometry" />
        </mxCell>
        <mxCell id="LxearwVgbOkMHxchKVPO-14" style="edgeStyle=orthogonalEdgeStyle;shape=connector;rounded=0;orthogonalLoop=1;jettySize=auto;html=1;exitX=1;exitY=1;exitDx=0;exitDy=0;exitPerimeter=0;labelBackgroundColor=default;strokeColor=default;fontFamily=Helvetica;fontSize=11;fontColor=default;endArrow=none;endFill=0;" edge="1" parent="1" source="LxearwVgbOkMHxchKVPO-4" target="LxearwVgbOkMHxchKVPO-12">
          <mxGeometry relative="1" as="geometry">
            <Array as="points">
              <mxPoint x="400" y="430" />
            </Array>
          </mxGeometry>
        </mxCell>
        <mxCell id="LxearwVgbOkMHxchKVPO-38" style="edgeStyle=orthogonalEdgeStyle;shape=connector;rounded=0;orthogonalLoop=1;jettySize=auto;html=1;exitX=1;exitY=0;exitDx=0;exitDy=0;exitPerimeter=0;entryX=0.4;entryY=0.456;entryDx=0;entryDy=0;entryPerimeter=0;labelBackgroundColor=default;strokeColor=default;fontFamily=Helvetica;fontSize=11;fontColor=default;endArrow=none;endFill=0;" edge="1" parent="1" source="LxearwVgbOkMHxchKVPO-4" target="LxearwVgbOkMHxchKVPO-32">
          <mxGeometry relative="1" as="geometry">
            <Array as="points">
              <mxPoint x="400" y="310" />
            </Array>
          </mxGeometry>
        </mxCell>
        <mxCell id="LxearwVgbOkMHxchKVPO-4" value="" style="verticalLabelPosition=bottom;shadow=0;dashed=0;align=center;html=1;verticalAlign=top;shape=mxgraph.electrical.transistors.pmos;pointerEvents=1;" vertex="1" parent="1">
          <mxGeometry x="340" y="310" width="60" height="100" as="geometry" />
        </mxCell>
        <mxCell id="LxearwVgbOkMHxchKVPO-10" style="edgeStyle=orthogonalEdgeStyle;shape=connector;rounded=0;orthogonalLoop=1;jettySize=auto;html=1;exitX=1;exitY=1;exitDx=0;exitDy=0;exitPerimeter=0;entryX=0;entryY=0.5;entryDx=0;entryDy=0;entryPerimeter=0;labelBackgroundColor=default;strokeColor=default;fontFamily=Helvetica;fontSize=11;fontColor=default;endArrow=none;endFill=0;" edge="1" parent="1" source="LxearwVgbOkMHxchKVPO-5" target="LxearwVgbOkMHxchKVPO-7">
          <mxGeometry relative="1" as="geometry" />
        </mxCell>
        <mxCell id="LxearwVgbOkMHxchKVPO-37" style="edgeStyle=orthogonalEdgeStyle;shape=connector;rounded=0;orthogonalLoop=1;jettySize=auto;html=1;exitX=1;exitY=0;exitDx=0;exitDy=0;exitPerimeter=0;labelBackgroundColor=default;strokeColor=default;fontFamily=Helvetica;fontSize=11;fontColor=default;endArrow=none;endFill=0;" edge="1" parent="1" source="LxearwVgbOkMHxchKVPO-5" target="LxearwVgbOkMHxchKVPO-32">
          <mxGeometry relative="1" as="geometry">
            <Array as="points">
              <mxPoint x="480" y="310" />
            </Array>
          </mxGeometry>
        </mxCell>
        <mxCell id="LxearwVgbOkMHxchKVPO-74" style="edgeStyle=orthogonalEdgeStyle;shape=connector;rounded=0;orthogonalLoop=1;jettySize=auto;html=1;exitX=0;exitY=0.5;exitDx=0;exitDy=0;exitPerimeter=0;entryX=0;entryY=0.5;entryDx=0;entryDy=0;labelBackgroundColor=default;strokeColor=default;fontFamily=Helvetica;fontSize=11;fontColor=default;endArrow=none;endFill=0;" edge="1" parent="1" source="LxearwVgbOkMHxchKVPO-5" target="LxearwVgbOkMHxchKVPO-73">
          <mxGeometry relative="1" as="geometry" />
        </mxCell>
        <mxCell id="LxearwVgbOkMHxchKVPO-5" value="" style="verticalLabelPosition=bottom;shadow=0;dashed=0;align=center;html=1;verticalAlign=top;shape=mxgraph.electrical.transistors.pmos;pointerEvents=1;flipH=1;" vertex="1" parent="1">
          <mxGeometry x="480" y="310" width="60" height="100" as="geometry" />
        </mxCell>
        <mxCell id="LxearwVgbOkMHxchKVPO-6" value="" style="pointerEvents=1;verticalLabelPosition=bottom;shadow=0;dashed=0;align=center;html=1;verticalAlign=top;shape=mxgraph.electrical.resistors.resistor_1;direction=south;" vertex="1" parent="1">
          <mxGeometry x="190" y="470" width="20" height="100" as="geometry" />
        </mxCell>
        <mxCell id="LxearwVgbOkMHxchKVPO-7" value="" style="pointerEvents=1;verticalLabelPosition=bottom;shadow=0;dashed=0;align=center;html=1;verticalAlign=top;shape=mxgraph.electrical.resistors.resistor_1;direction=south;" vertex="1" parent="1">
          <mxGeometry x="470" y="470" width="20" height="100" as="geometry" />
        </mxCell>
        <mxCell id="LxearwVgbOkMHxchKVPO-12" value="" style="shape=waypoint;sketch=0;fillStyle=solid;size=6;pointerEvents=1;points=[];fillColor=none;resizable=0;rotatable=0;perimeter=centerPerimeter;snapToPoint=1;fontFamily=Helvetica;fontSize=11;fontColor=default;" vertex="1" parent="1">
          <mxGeometry x="190" y="420" width="20" height="20" as="geometry" />
        </mxCell>
        <mxCell id="LxearwVgbOkMHxchKVPO-13" value="" style="shape=waypoint;sketch=0;fillStyle=solid;size=6;pointerEvents=1;points=[];fillColor=none;resizable=0;rotatable=0;perimeter=centerPerimeter;snapToPoint=1;fontFamily=Helvetica;fontSize=11;fontColor=default;" vertex="1" parent="1">
          <mxGeometry x="470" y="410" width="20" height="20" as="geometry" />
        </mxCell>
        <mxCell id="LxearwVgbOkMHxchKVPO-16" value="" style="pointerEvents=1;verticalLabelPosition=bottom;shadow=0;dashed=0;align=center;html=1;verticalAlign=top;shape=mxgraph.electrical.signal_sources.signal_ground;fontFamily=Helvetica;fontSize=11;fontColor=default;" vertex="1" parent="1">
          <mxGeometry x="177.5" y="560" width="45" height="30" as="geometry" />
        </mxCell>
        <mxCell id="LxearwVgbOkMHxchKVPO-17" value="" style="pointerEvents=1;verticalLabelPosition=bottom;shadow=0;dashed=0;align=center;html=1;verticalAlign=top;shape=mxgraph.electrical.signal_sources.signal_ground;fontFamily=Helvetica;fontSize=11;fontColor=default;" vertex="1" parent="1">
          <mxGeometry x="457.5" y="560" width="45" height="30" as="geometry" />
        </mxCell>
        <mxCell id="LxearwVgbOkMHxchKVPO-23" style="edgeStyle=orthogonalEdgeStyle;shape=connector;rounded=0;orthogonalLoop=1;jettySize=auto;html=1;exitX=0;exitY=0.5;exitDx=0;exitDy=0;labelBackgroundColor=default;strokeColor=default;fontFamily=Helvetica;fontSize=11;fontColor=default;endArrow=none;endFill=0;" edge="1" parent="1" source="LxearwVgbOkMHxchKVPO-18" target="LxearwVgbOkMHxchKVPO-20">
          <mxGeometry relative="1" as="geometry" />
        </mxCell>
        <mxCell id="LxearwVgbOkMHxchKVPO-18" value="" style="verticalLabelPosition=bottom;shadow=0;dashed=0;align=center;html=1;verticalAlign=top;strokeWidth=1;shape=ellipse;perimeter=ellipsePerimeter;fontFamily=Helvetica;fontSize=11;fontColor=default;aspect=fixed;" vertex="1" parent="1">
          <mxGeometry x="277" y="457" width="6" height="6" as="geometry" />
        </mxCell>
        <mxCell id="LxearwVgbOkMHxchKVPO-22" style="edgeStyle=orthogonalEdgeStyle;shape=connector;rounded=0;orthogonalLoop=1;jettySize=auto;html=1;exitX=1;exitY=0.5;exitDx=0;exitDy=0;labelBackgroundColor=default;strokeColor=default;fontFamily=Helvetica;fontSize=11;fontColor=default;endArrow=none;endFill=0;" edge="1" parent="1" source="LxearwVgbOkMHxchKVPO-19" target="LxearwVgbOkMHxchKVPO-21">
          <mxGeometry relative="1" as="geometry" />
        </mxCell>
        <mxCell id="LxearwVgbOkMHxchKVPO-19" value="" style="verticalLabelPosition=bottom;shadow=0;dashed=0;align=center;html=1;verticalAlign=top;strokeWidth=1;shape=ellipse;perimeter=ellipsePerimeter;fontFamily=Helvetica;fontSize=11;fontColor=default;aspect=fixed;" vertex="1" parent="1">
          <mxGeometry x="397" y="457" width="6" height="6" as="geometry" />
        </mxCell>
        <mxCell id="LxearwVgbOkMHxchKVPO-20" value="" style="shape=waypoint;sketch=0;fillStyle=solid;size=6;pointerEvents=1;points=[];fillColor=none;resizable=0;rotatable=0;perimeter=centerPerimeter;snapToPoint=1;fontFamily=Helvetica;fontSize=11;fontColor=default;" vertex="1" parent="1">
          <mxGeometry x="190" y="450" width="20" height="20" as="geometry" />
        </mxCell>
        <mxCell id="LxearwVgbOkMHxchKVPO-21" value="" style="shape=waypoint;sketch=0;fillStyle=solid;size=6;pointerEvents=1;points=[];fillColor=none;resizable=0;rotatable=0;perimeter=centerPerimeter;snapToPoint=1;fontFamily=Helvetica;fontSize=11;fontColor=default;" vertex="1" parent="1">
          <mxGeometry x="470" y="450" width="20" height="20" as="geometry" />
        </mxCell>
        <mxCell id="LxearwVgbOkMHxchKVPO-24" value="&lt;font style=&quot;font-size: 15px;&quot;&gt;`V_{out}+\Delta v`&lt;/font&gt;" style="text;html=1;align=center;verticalAlign=middle;resizable=0;points=[];autosize=1;strokeColor=none;fillColor=none;fontSize=15;fontFamily=Helvetica;fontColor=default;" vertex="1" parent="1">
          <mxGeometry x="200" y="457" width="140" height="30" as="geometry" />
        </mxCell>
        <mxCell id="LxearwVgbOkMHxchKVPO-25" value="&lt;font style=&quot;font-size: 15px;&quot;&gt;`V_{out}-\Delta v`&lt;/font&gt;" style="text;html=1;align=center;verticalAlign=middle;resizable=0;points=[];autosize=1;strokeColor=none;fillColor=none;fontSize=15;fontFamily=Helvetica;fontColor=default;" vertex="1" parent="1">
          <mxGeometry x="347.5" y="457" width="140" height="30" as="geometry" />
        </mxCell>
        <mxCell id="LxearwVgbOkMHxchKVPO-26" value="&lt;font style=&quot;font-size: 24px;&quot;&gt;`R_{L}`&lt;/font&gt;" style="text;html=1;align=center;verticalAlign=middle;resizable=0;points=[];autosize=1;strokeColor=none;fillColor=none;fontSize=11;fontFamily=Helvetica;fontColor=default;" vertex="1" parent="1">
          <mxGeometry x="180" y="500" width="100" height="40" as="geometry" />
        </mxCell>
        <mxCell id="LxearwVgbOkMHxchKVPO-27" value="&lt;font style=&quot;font-size: 24px;&quot;&gt;`R_{L}`&lt;/font&gt;" style="text;html=1;align=center;verticalAlign=middle;resizable=0;points=[];autosize=1;strokeColor=none;fillColor=none;fontSize=11;fontFamily=Helvetica;fontColor=default;" vertex="1" parent="1">
          <mxGeometry x="400" y="500" width="100" height="40" as="geometry" />
        </mxCell>
        <mxCell id="LxearwVgbOkMHxchKVPO-39" style="edgeStyle=orthogonalEdgeStyle;shape=connector;rounded=0;orthogonalLoop=1;jettySize=auto;html=1;exitX=1;exitY=0.5;exitDx=0;exitDy=0;exitPerimeter=0;labelBackgroundColor=default;strokeColor=default;fontFamily=Helvetica;fontSize=11;fontColor=default;endArrow=none;endFill=0;" edge="1" parent="1" source="LxearwVgbOkMHxchKVPO-30">
          <mxGeometry relative="1" as="geometry">
            <mxPoint x="440.0467289719627" y="310.00000000000006" as="targetPoint" />
          </mxGeometry>
        </mxCell>
        <mxCell id="LxearwVgbOkMHxchKVPO-44" style="edgeStyle=orthogonalEdgeStyle;shape=connector;rounded=0;orthogonalLoop=1;jettySize=auto;html=1;exitX=0;exitY=0.5;exitDx=0;exitDy=0;exitPerimeter=0;labelBackgroundColor=default;strokeColor=default;fontFamily=Helvetica;fontSize=11;fontColor=default;endArrow=none;endFill=0;" edge="1" parent="1" source="LxearwVgbOkMHxchKVPO-30" target="LxearwVgbOkMHxchKVPO-42">
          <mxGeometry relative="1" as="geometry" />
        </mxCell>
        <mxCell id="LxearwVgbOkMHxchKVPO-30" value="" style="pointerEvents=1;verticalLabelPosition=bottom;shadow=0;dashed=0;align=center;html=1;verticalAlign=top;shape=mxgraph.electrical.signal_sources.source;aspect=fixed;points=[[0.5,0,0],[1,0.5,0],[0.5,1,0],[0,0.5,0]];elSignalType=dc1;rotation=90;" vertex="1" parent="1">
          <mxGeometry x="410" y="190" width="60" height="60" as="geometry" />
        </mxCell>
        <mxCell id="LxearwVgbOkMHxchKVPO-31" value="" style="shape=waypoint;sketch=0;fillStyle=solid;size=6;pointerEvents=1;points=[];fillColor=none;resizable=0;rotatable=0;perimeter=centerPerimeter;snapToPoint=1;fontFamily=Helvetica;fontSize=11;fontColor=default;" vertex="1" parent="1">
          <mxGeometry x="230" y="300" width="20" height="20" as="geometry" />
        </mxCell>
        <mxCell id="LxearwVgbOkMHxchKVPO-32" value="" style="shape=waypoint;sketch=0;fillStyle=solid;size=6;pointerEvents=1;points=[];fillColor=none;resizable=0;rotatable=0;perimeter=centerPerimeter;snapToPoint=1;fontFamily=Helvetica;fontSize=11;fontColor=default;" vertex="1" parent="1">
          <mxGeometry x="430" y="300" width="20" height="20" as="geometry" />
        </mxCell>
        <mxCell id="LxearwVgbOkMHxchKVPO-40" value="" style="endArrow=none;html=1;rounded=0;labelBackgroundColor=default;strokeColor=default;fontFamily=Helvetica;fontSize=11;fontColor=default;shape=connector;" edge="1" parent="1">
          <mxGeometry width="50" height="50" relative="1" as="geometry">
            <mxPoint x="200" y="160" as="sourcePoint" />
            <mxPoint x="480" y="160" as="targetPoint" />
          </mxGeometry>
        </mxCell>
        <mxCell id="LxearwVgbOkMHxchKVPO-41" value="" style="shape=waypoint;sketch=0;fillStyle=solid;size=6;pointerEvents=1;points=[];fillColor=none;resizable=0;rotatable=0;perimeter=centerPerimeter;snapToPoint=1;fontFamily=Helvetica;fontSize=11;fontColor=default;" vertex="1" parent="1">
          <mxGeometry x="230" y="150" width="20" height="20" as="geometry" />
        </mxCell>
        <mxCell id="LxearwVgbOkMHxchKVPO-42" value="" style="shape=waypoint;sketch=0;fillStyle=solid;size=6;pointerEvents=1;points=[];fillColor=none;resizable=0;rotatable=0;perimeter=centerPerimeter;snapToPoint=1;fontFamily=Helvetica;fontSize=11;fontColor=default;" vertex="1" parent="1">
          <mxGeometry x="430" y="150" width="20" height="20" as="geometry" />
        </mxCell>
        <mxCell id="LxearwVgbOkMHxchKVPO-50" style="edgeStyle=orthogonalEdgeStyle;shape=connector;rounded=0;orthogonalLoop=1;jettySize=auto;html=1;exitX=1;exitY=0.5;exitDx=0;exitDy=0;entryX=0.392;entryY=0.569;entryDx=0;entryDy=0;entryPerimeter=0;labelBackgroundColor=default;strokeColor=default;fontFamily=Helvetica;fontSize=11;fontColor=default;endArrow=none;endFill=0;" edge="1" parent="1" source="LxearwVgbOkMHxchKVPO-45" target="LxearwVgbOkMHxchKVPO-47">
          <mxGeometry relative="1" as="geometry" />
        </mxCell>
        <mxCell id="LxearwVgbOkMHxchKVPO-45" value="" style="verticalLabelPosition=bottom;shadow=0;dashed=0;align=center;html=1;verticalAlign=top;strokeWidth=1;shape=ellipse;perimeter=ellipsePerimeter;fontFamily=Helvetica;fontSize=11;fontColor=default;aspect=fixed;" vertex="1" parent="1">
          <mxGeometry x="117" y="277" width="6" height="6" as="geometry" />
        </mxCell>
        <mxCell id="LxearwVgbOkMHxchKVPO-49" style="edgeStyle=orthogonalEdgeStyle;shape=connector;rounded=0;orthogonalLoop=1;jettySize=auto;html=1;exitX=0;exitY=0.5;exitDx=0;exitDy=0;entryX=0.618;entryY=0.473;entryDx=0;entryDy=0;entryPerimeter=0;labelBackgroundColor=default;strokeColor=default;fontFamily=Helvetica;fontSize=11;fontColor=default;endArrow=none;endFill=0;" edge="1" parent="1" source="LxearwVgbOkMHxchKVPO-46" target="LxearwVgbOkMHxchKVPO-48">
          <mxGeometry relative="1" as="geometry" />
        </mxCell>
        <mxCell id="LxearwVgbOkMHxchKVPO-46" value="" style="verticalLabelPosition=bottom;shadow=0;dashed=0;align=center;html=1;verticalAlign=top;strokeWidth=1;shape=ellipse;perimeter=ellipsePerimeter;fontFamily=Helvetica;fontSize=11;fontColor=default;aspect=fixed;" vertex="1" parent="1">
          <mxGeometry x="557" y="277" width="6" height="6" as="geometry" />
        </mxCell>
        <mxCell id="LxearwVgbOkMHxchKVPO-47" value="" style="shape=waypoint;sketch=0;fillStyle=solid;size=6;pointerEvents=1;points=[];fillColor=none;resizable=0;rotatable=0;perimeter=centerPerimeter;snapToPoint=1;fontFamily=Helvetica;fontSize=11;fontColor=default;" vertex="1" parent="1">
          <mxGeometry x="230" y="270" width="20" height="20" as="geometry" />
        </mxCell>
        <mxCell id="LxearwVgbOkMHxchKVPO-48" value="" style="shape=waypoint;sketch=0;fillStyle=solid;size=6;pointerEvents=1;points=[];fillColor=none;resizable=0;rotatable=0;perimeter=centerPerimeter;snapToPoint=1;fontFamily=Helvetica;fontSize=11;fontColor=default;" vertex="1" parent="1">
          <mxGeometry x="430" y="270" width="20" height="20" as="geometry" />
        </mxCell>
        <mxCell id="LxearwVgbOkMHxchKVPO-51" value="" style="endArrow=classic;html=1;rounded=0;labelBackgroundColor=default;strokeColor=default;fontFamily=Helvetica;fontSize=11;fontColor=default;shape=connector;" edge="1" parent="1">
          <mxGeometry width="50" height="50" relative="1" as="geometry">
            <mxPoint x="279.53" y="170" as="sourcePoint" />
            <mxPoint x="279.53" y="210" as="targetPoint" />
          </mxGeometry>
        </mxCell>
        <mxCell id="LxearwVgbOkMHxchKVPO-52" value="" style="endArrow=classic;html=1;rounded=0;labelBackgroundColor=default;strokeColor=default;fontFamily=Helvetica;fontSize=11;fontColor=default;shape=connector;" edge="1" parent="1">
          <mxGeometry width="50" height="50" relative="1" as="geometry">
            <mxPoint x="399.53" y="170" as="sourcePoint" />
            <mxPoint x="399.53" y="210" as="targetPoint" />
          </mxGeometry>
        </mxCell>
        <mxCell id="LxearwVgbOkMHxchKVPO-53" value="&lt;font style=&quot;font-size: 24px;&quot;&gt;`I_{bias}`&lt;/font&gt;" style="text;html=1;align=center;verticalAlign=middle;resizable=0;points=[];autosize=1;strokeColor=none;fillColor=none;fontSize=11;fontFamily=Helvetica;fontColor=default;" vertex="1" parent="1">
          <mxGeometry x="320" y="200" width="120" height="40" as="geometry" />
        </mxCell>
        <mxCell id="LxearwVgbOkMHxchKVPO-54" value="" style="endArrow=classic;html=1;rounded=0;labelBackgroundColor=default;strokeColor=default;fontFamily=Helvetica;fontSize=11;fontColor=default;shape=connector;" edge="1" parent="1">
          <mxGeometry width="50" height="50" relative="1" as="geometry">
            <mxPoint x="157" y="269.53" as="sourcePoint" />
            <mxPoint x="117" y="269.53" as="targetPoint" />
          </mxGeometry>
        </mxCell>
        <mxCell id="LxearwVgbOkMHxchKVPO-55" value="" style="endArrow=classic;html=1;rounded=0;labelBackgroundColor=default;strokeColor=default;fontFamily=Helvetica;fontSize=11;fontColor=default;shape=connector;" edge="1" parent="1">
          <mxGeometry width="50" height="50" relative="1" as="geometry">
            <mxPoint x="523" y="269.53" as="sourcePoint" />
            <mxPoint x="563" y="269.53" as="targetPoint" />
          </mxGeometry>
        </mxCell>
        <mxCell id="LxearwVgbOkMHxchKVPO-56" value="&lt;font style=&quot;font-size: 15px;&quot;&gt;`I_{bias}&quot;/&quot;2-i`&lt;/font&gt;" style="text;html=1;align=center;verticalAlign=middle;resizable=0;points=[];autosize=1;strokeColor=none;fillColor=none;fontSize=15;fontFamily=Helvetica;fontColor=default;" vertex="1" parent="1">
          <mxGeometry x="102.5" y="240" width="120" height="30" as="geometry" />
        </mxCell>
        <mxCell id="LxearwVgbOkMHxchKVPO-57" value="" style="endArrow=classic;html=1;rounded=0;labelBackgroundColor=default;strokeColor=default;fontFamily=Helvetica;fontSize=11;fontColor=default;shape=connector;" edge="1" parent="1">
          <mxGeometry width="50" height="50" relative="1" as="geometry">
            <mxPoint x="250" y="284" as="sourcePoint" />
            <mxPoint x="250" y="304" as="targetPoint" />
          </mxGeometry>
        </mxCell>
        <mxCell id="LxearwVgbOkMHxchKVPO-58" value="" style="endArrow=classic;html=1;rounded=0;labelBackgroundColor=default;strokeColor=default;fontFamily=Helvetica;fontSize=11;fontColor=default;shape=connector;" edge="1" parent="1">
          <mxGeometry width="50" height="50" relative="1" as="geometry">
            <mxPoint x="429.78" y="284" as="sourcePoint" />
            <mxPoint x="429.78" y="304" as="targetPoint" />
          </mxGeometry>
        </mxCell>
        <mxCell id="LxearwVgbOkMHxchKVPO-60" value="&lt;font style=&quot;font-size: 15px;&quot;&gt;`I_{bias}&quot;/&quot;2+i`&lt;/font&gt;" style="text;html=1;align=center;verticalAlign=middle;resizable=0;points=[];autosize=1;strokeColor=none;fillColor=none;fontSize=15;fontFamily=Helvetica;fontColor=default;" vertex="1" parent="1">
          <mxGeometry x="440" y="240" width="120" height="30" as="geometry" />
        </mxCell>
        <mxCell id="LxearwVgbOkMHxchKVPO-64" value="&lt;font style=&quot;font-size: 15px;&quot;&gt;`I_{bias}&quot;/&quot;2+i`&lt;/font&gt;" style="text;html=1;align=center;verticalAlign=middle;resizable=0;points=[];autosize=1;strokeColor=none;fillColor=none;fontSize=15;fontFamily=Helvetica;fontColor=default;" vertex="1" parent="1">
          <mxGeometry x="230" y="270" width="120" height="30" as="geometry" />
        </mxCell>
        <mxCell id="LxearwVgbOkMHxchKVPO-65" value="&lt;font style=&quot;font-size: 15px;&quot;&gt;`I_{bias}&quot;/&quot;2-i`&lt;/font&gt;" style="text;html=1;align=center;verticalAlign=middle;resizable=0;points=[];autosize=1;strokeColor=none;fillColor=none;fontSize=15;fontFamily=Helvetica;fontColor=default;" vertex="1" parent="1">
          <mxGeometry x="330" y="270" width="120" height="30" as="geometry" />
        </mxCell>
        <mxCell id="LxearwVgbOkMHxchKVPO-66" value="&lt;font style=&quot;font-size: 24px;&quot;&gt;`V_{pS1}`&lt;/font&gt;" style="text;html=1;align=center;verticalAlign=middle;resizable=0;points=[];autosize=1;strokeColor=none;fillColor=none;fontSize=11;fontFamily=Helvetica;fontColor=default;" vertex="1" parent="1">
          <mxGeometry x="175" y="310" width="130" height="40" as="geometry" />
        </mxCell>
        <mxCell id="LxearwVgbOkMHxchKVPO-67" value="&lt;font style=&quot;font-size: 24px;&quot;&gt;`V_{pS2}`&lt;/font&gt;" style="text;html=1;align=center;verticalAlign=middle;resizable=0;points=[];autosize=1;strokeColor=none;fillColor=none;fontSize=11;fontFamily=Helvetica;fontColor=default;" vertex="1" parent="1">
          <mxGeometry x="375" y="310" width="130" height="40" as="geometry" />
        </mxCell>
        <mxCell id="LxearwVgbOkMHxchKVPO-70" style="edgeStyle=orthogonalEdgeStyle;shape=connector;rounded=0;orthogonalLoop=1;jettySize=auto;html=1;exitX=0.5;exitY=1;exitDx=0;exitDy=0;entryX=0;entryY=0.5;entryDx=0;entryDy=0;entryPerimeter=0;labelBackgroundColor=default;strokeColor=default;fontFamily=Helvetica;fontSize=11;fontColor=default;endArrow=none;endFill=0;" edge="1" parent="1" source="LxearwVgbOkMHxchKVPO-68" target="LxearwVgbOkMHxchKVPO-4">
          <mxGeometry relative="1" as="geometry" />
        </mxCell>
        <mxCell id="LxearwVgbOkMHxchKVPO-68" value="" style="verticalLabelPosition=bottom;shadow=0;dashed=0;align=center;html=1;verticalAlign=top;strokeWidth=1;shape=ellipse;perimeter=ellipsePerimeter;fontFamily=Helvetica;fontSize=11;fontColor=default;aspect=fixed;" vertex="1" parent="1">
          <mxGeometry x="337" y="337" width="6" height="6" as="geometry" />
        </mxCell>
        <mxCell id="LxearwVgbOkMHxchKVPO-69" value="" style="shape=waypoint;sketch=0;fillStyle=solid;size=6;pointerEvents=1;points=[];fillColor=none;resizable=0;rotatable=0;perimeter=centerPerimeter;snapToPoint=1;fontFamily=Helvetica;fontSize=11;fontColor=default;" vertex="1" parent="1">
          <mxGeometry x="330" y="350" width="20" height="20" as="geometry" />
        </mxCell>
        <mxCell id="LxearwVgbOkMHxchKVPO-71" value="&lt;font style=&quot;font-size: 16px;&quot;&gt;`V_{pb}+V_{CTRL}`&lt;/font&gt;" style="text;html=1;align=center;verticalAlign=middle;resizable=0;points=[];autosize=1;strokeColor=none;fillColor=none;fontSize=16;fontFamily=Helvetica;fontColor=default;" vertex="1" parent="1">
          <mxGeometry x="258" y="307" width="160" height="30" as="geometry" />
        </mxCell>
        <mxCell id="LxearwVgbOkMHxchKVPO-72" value="" style="verticalLabelPosition=bottom;shadow=0;dashed=0;align=center;html=1;verticalAlign=top;strokeWidth=1;shape=ellipse;perimeter=ellipsePerimeter;fontFamily=Helvetica;fontSize=11;fontColor=default;aspect=fixed;" vertex="1" parent="1">
          <mxGeometry x="117" y="357" width="6" height="6" as="geometry" />
        </mxCell>
        <mxCell id="LxearwVgbOkMHxchKVPO-73" value="" style="verticalLabelPosition=bottom;shadow=0;dashed=0;align=center;html=1;verticalAlign=top;strokeWidth=1;shape=ellipse;perimeter=ellipsePerimeter;fontFamily=Helvetica;fontSize=11;fontColor=default;aspect=fixed;" vertex="1" parent="1">
          <mxGeometry x="557" y="357" width="6" height="6" as="geometry" />
        </mxCell>
        <mxCell id="LxearwVgbOkMHxchKVPO-76" value="&lt;font style=&quot;font-size: 16px;&quot;&gt;`V_{pb}-V_{CTRL}`&lt;/font&gt;" style="text;html=1;align=center;verticalAlign=middle;resizable=0;points=[];autosize=1;strokeColor=none;fillColor=none;fontSize=16;fontFamily=Helvetica;fontColor=default;" vertex="1" parent="1">
          <mxGeometry x="40" y="325" width="160" height="30" as="geometry" />
        </mxCell>
        <mxCell id="LxearwVgbOkMHxchKVPO-77" value="&lt;font style=&quot;font-size: 16px;&quot;&gt;`V_{pb}-V_{CTRL}`&lt;/font&gt;" style="text;html=1;align=center;verticalAlign=middle;resizable=0;points=[];autosize=1;strokeColor=none;fillColor=none;fontSize=16;fontFamily=Helvetica;fontColor=default;" vertex="1" parent="1">
          <mxGeometry x="480" y="325" width="160" height="30" as="geometry" />
        </mxCell>
        <mxCell id="LxearwVgbOkMHxchKVPO-78" value="&lt;font style=&quot;font-size: 16px;&quot;&gt;`M_{p1}`&lt;/font&gt;" style="text;html=1;align=center;verticalAlign=middle;resizable=0;points=[];autosize=1;strokeColor=none;fillColor=none;fontSize=16;fontFamily=Helvetica;fontColor=default;" vertex="1" parent="1">
          <mxGeometry x="180" y="355" width="80" height="30" as="geometry" />
        </mxCell>
        <mxCell id="LxearwVgbOkMHxchKVPO-79" value="&lt;font style=&quot;font-size: 16px;&quot;&gt;`M_{p2}`&lt;/font&gt;" style="text;html=1;align=center;verticalAlign=middle;resizable=0;points=[];autosize=1;strokeColor=none;fillColor=none;fontSize=16;fontFamily=Helvetica;fontColor=default;" vertex="1" parent="1">
          <mxGeometry x="222.5" y="355" width="80" height="30" as="geometry" />
        </mxCell>
        <mxCell id="LxearwVgbOkMHxchKVPO-80" value="&lt;font style=&quot;font-size: 16px;&quot;&gt;`M_{p3}`&lt;/font&gt;" style="text;html=1;align=center;verticalAlign=middle;resizable=0;points=[];autosize=1;strokeColor=none;fillColor=none;fontSize=16;fontFamily=Helvetica;fontColor=default;" vertex="1" parent="1">
          <mxGeometry x="377.5" y="355" width="80" height="30" as="geometry" />
        </mxCell>
        <mxCell id="LxearwVgbOkMHxchKVPO-81" value="&lt;font style=&quot;font-size: 16px;&quot;&gt;`M_{p4}`&lt;/font&gt;" style="text;html=1;align=center;verticalAlign=middle;resizable=0;points=[];autosize=1;strokeColor=none;fillColor=none;fontSize=16;fontFamily=Helvetica;fontColor=default;" vertex="1" parent="1">
          <mxGeometry x="420" y="355" width="80" height="30" as="geometry" />
        </mxCell>
      </root>
    </mxGraphModel>
  </diagram>
</mxfile>
